<svg width="71" height="61" viewBox="0 0 71 61" fill="none" xmlns="http://www.w3.org/2000/svg">
<path fill-rule="evenodd" clip-rule="evenodd" d="M7.9527 32.5649C7.94508 32.663 7.93793 32.763 7.93128 32.8649C7.6548 37.1025 8.25874 44.4954 12.4714 48.7081C18.7821 55.0188 31.5156 52.5169 31.5156 52.5169C31.5156 52.5169 34.0174 39.7834 27.7067 33.4727C21.396 27.162 8.66252 29.6638 8.66252 29.6638C8.58176 29.5831 8.48727 29.6834 8.39232 29.934C8.22158 30.3847 8.04934 31.3214 7.9527 32.5649ZM10.9822 32.3638C10.8783 33.3963 10.8293 34.7974 10.9268 36.3654C11.1653 40.1986 12.2242 44.2182 14.5927 46.5867C16.9309 48.9249 20.73 49.8272 24.4833 49.9815C26.1577 50.0504 27.6891 49.9648 28.8509 49.8522C28.9635 48.6904 29.0491 47.159 28.9802 45.4846C28.8258 41.7313 27.9236 37.9322 25.5854 35.594C23.2472 33.2558 19.4481 32.3536 15.6948 32.1992C13.891 32.125 12.2532 32.23 11.0646 32.3551C11.0369 32.358 11.0094 32.3609 10.9822 32.3638Z" fill="#cd7070a5"/>
<path fill-rule="evenodd" clip-rule="evenodd" d="M60.4218 28.9539C60.3237 28.9463 60.2237 28.9391 60.1218 28.9325C55.8842 28.656 48.4913 29.26 44.2786 33.4726C37.9679 39.7833 40.4698 52.5168 40.4698 52.5168C40.4698 52.5168 53.2033 55.0187 59.514 48.708C65.8247 42.3973 63.3229 29.6637 63.3229 29.6637C63.4036 29.583 63.3033 29.4885 63.0527 29.3935C62.602 29.2228 61.6653 29.0506 60.4218 28.9539ZM60.6229 31.9834C59.5904 31.8795 58.1893 31.8305 56.6213 31.928C52.7881 32.1665 48.7685 33.2254 46.4 35.5939C44.0618 37.9321 43.1595 41.7312 43.0052 45.4845C42.9363 47.1589 43.0218 48.6903 43.1345 49.8521C44.2963 49.9648 45.8277 50.0503 47.5021 49.9814C51.2554 49.8271 55.0545 48.9248 57.3927 46.5866C59.7309 44.2485 60.6331 40.4493 60.7875 36.6961C60.8617 34.8922 60.7567 33.2544 60.6316 32.0658C60.6287 32.0381 60.6258 32.0106 60.6229 31.9834Z" fill="#cd7070a5"/>
<path fill-rule="evenodd" clip-rule="evenodd" d="M32.9922 2.3373C32.9175 2.40128 32.8417 2.46694 32.765 2.53426C29.573 5.33524 24.7725 10.9899 24.7725 16.9474C24.7725 25.8721 35.5455 33.107 35.5455 33.107C35.5455 33.107 46.3185 25.8721 46.3185 16.9474C46.3185 8.02273 35.5455 0.787852 35.5455 0.787852C35.5455 0.673639 35.4077 0.677773 35.1634 0.787852C34.724 0.985794 33.9399 1.52631 32.9922 2.3373ZM35.2766 4.33731C34.473 4.9939 33.4477 5.94995 32.4079 7.12765C29.866 10.0068 27.7725 13.5978 27.7725 16.9474C27.7725 20.2541 29.8209 23.5785 32.3657 26.3416C33.501 27.5743 34.6443 28.5966 35.5455 29.3385C36.4467 28.5966 37.59 27.5743 38.7253 26.3416C41.2701 23.5785 43.3185 20.2541 43.3185 16.9474C43.3185 13.6407 41.2701 10.3163 38.7253 7.55323C37.5023 6.22527 36.2699 5.14142 35.341 4.38935C35.3194 4.37181 35.2979 4.35446 35.2766 4.33731Z" fill="#cd7070a5"/>
<path fill-rule="evenodd" clip-rule="evenodd" d="M37 15.7861V31.2861H34V15.7861H37ZM20.5064 40.1738L31.0064 49.6738L28.9937 51.8984L18.4937 42.3984L20.5064 40.1738ZM53.0607 42.3468L43.5607 51.8468L41.4394 49.7255L50.9394 40.2255L53.0607 42.3468Z" fill="#cd7070a5"/>
</svg>
