
<svg width="90" height="125" viewBox="0 0 90 125" fill="none" xmlns="http://www.w3.org/2000/svg">
<path d="M45 26C26.7746 26 12 23.9853 12 21.5C12 19.0147 26.7746 17 45 17C63.2254 17 78 19.0147 78 21.5C78 23.9853 63.2254 26 45 26Z" stroke="#F9F7EF" stroke-width="3" stroke-linecap="round" stroke-linejoin="round"/>
<path d="M12 22L32.1132 50.3943C34.0789 53.1732 36.9281 55.2357 40.2126 56.267C43.3239 57.2444 46.6719 57.2444 49.7831 56.267C53.0677 55.2357 55.9169 53.1732 57.8825 50.3943L78 22" stroke="#F9F7EF" stroke-width="3" stroke-linecap="round" stroke-linejoin="round"/>
<path d="M45 57V102" stroke="#F9F7EF" stroke-width="3" stroke-linecap="round" stroke-linejoin="round"/>
<path d="M23 105.5C23 107.435 32.8501 109 45 109C57.15 109 67 107.435 67 105.5C67 103.565 57.15 102 45 102C32.8501 102 23 103.565 23 105.5Z" stroke="#F9F7EF" stroke-width="3" stroke-linecap="round" stroke-linejoin="round"/>
<path d="M70 32.5C66.6431 32.7777 56.9277 36.1846 44.5 35.5C31.0385 34.7584 22.0337 32.1696 20 32.5" stroke="#F9F7EF" stroke-width="3" stroke-linecap="round" stroke-linejoin="round"/>
</svg>
